<?xml version="1.0" encoding="UTF-8" ?>
<!DOCTYPE svg PUBLIC "-//W3C//DTD SVG 1.1//EN" "http://www.w3.org/Graphics/SVG/1.1/DTD/svg11.dtd">
<svg width="65pt" height="191pt" viewBox="0 0 175 191" version="1.1" xmlns="http://www.w3.org/2000/svg">
<path fill="none" d=" M 0.00 0.00 L 40.27 0.00 C 40.25 1.12 40.21 2.24 40.16 3.35 C 35.98 4.31 34.07 9.10 29.78 9.85 C 25.01 10.67 19.92 8.92 16.26 5.81 C 13.48 3.29 8.77 5.78 9.29 9.52 C 6.54 14.23 5.64 19.81 6.19 25.19 C 6.64 28.36 9.31 30.47 11.39 32.64 C 7.12 40.39 7.11 49.59 8.32 58.13 C 10.96 77.24 14.75 96.32 14.62 115.70 C 14.02 116.10 12.83 116.90 12.24 117.30 C 11.86 118.77 12.94 120.11 13.26 121.50 C 14.42 124.19 12.48 126.86 11.06 129.01 C 6.78 134.76 1.78 140.35 0.00 147.48 L 0.00 0.00 Z" />
<path fill="#36373B" d=" M 40.27 0.00 L 40.67 0.00 C 43.03 1.92 46.20 1.43 49.02 1.71 C 61.19 2.34 73.40 9.48 78.37 20.88 C 79.88 24.00 79.79 27.63 81.07 30.80 C 84.69 35.05 90.89 37.15 92.64 42.90 C 94.73 48.52 97.55 54.00 98.32 60.00 C 98.09 64.74 97.72 69.51 96.54 74.12 C 94.83 75.44 93.35 77.06 91.51 78.21 C 89.12 79.06 86.58 79.40 84.10 79.92 C 87.23 82.94 90.50 85.81 93.91 88.51 C 93.41 88.56 92.41 88.66 91.91 88.71 C 94.75 91.18 97.24 94.01 99.95 96.62 C 100.54 97.79 101.29 98.89 102.24 99.81 C 109.76 107.02 117.58 113.94 125.94 120.16 C 132.93 125.29 140.53 130.30 144.99 137.96 C 147.25 143.44 150.02 148.88 150.52 154.88 C 151.18 160.52 150.34 166.22 148.58 171.58 C 150.87 171.40 153.41 171.86 155.45 170.55 C 162.18 166.64 162.89 155.88 157.22 150.76 C 155.44 149.09 152.96 148.69 150.71 148.04 C 152.24 145.53 153.70 142.47 156.84 141.72 C 158.75 140.86 160.57 142.42 162.34 142.95 C 163.05 142.80 163.76 142.65 164.47 142.51 C 171.58 146.35 174.64 154.96 173.17 162.66 L 174.99 161.49 C 175.06 165.31 172.18 168.34 172.22 172.14 C 168.14 175.30 164.08 178.90 158.92 180.09 C 154.11 181.34 149.28 179.59 144.51 178.99 C 140.62 183.89 135.24 187.65 129.08 189.02 C 113.57 192.58 97.41 190.80 82.05 187.33 C 81.30 187.06 80.55 186.77 79.82 186.45 C 79.02 186.39 77.42 186.28 76.62 186.22 C 76.29 182.53 77.47 178.65 80.06 175.97 C 83.76 173.33 88.75 174.66 92.71 172.75 C 94.48 171.73 93.72 169.32 93.18 167.79 C 91.07 162.52 85.37 160.31 81.48 156.61 C 81.25 156.77 80.80 157.08 80.58 157.23 C 77.96 154.79 73.79 155.14 71.62 152.06 C 72.12 154.06 72.57 156.07 72.93 158.10 C 72.56 163.12 72.34 168.21 73.13 173.21 C 72.76 175.40 73.32 177.93 71.87 179.81 C 68.61 182.75 67.14 188.18 62.25 188.86 C 57.31 189.58 51.91 188.94 47.57 186.37 C 45.19 185.13 45.01 182.30 44.57 179.98 C 41.33 179.46 36.96 179.60 35.38 176.05 C 35.19 171.53 40.27 170.18 43.45 168.40 C 46.35 167.17 47.10 163.80 47.50 160.99 C 47.82 153.71 49.13 146.27 47.20 139.09 C 45.90 135.94 43.10 133.80 41.41 130.92 C 40.80 128.65 40.66 126.28 40.20 123.98 C 39.92 124.83 39.35 126.53 39.07 127.38 C 36.05 123.94 34.10 119.74 34.14 115.10 C 31.78 111.91 32.35 107.84 31.67 104.15 C 32.83 100.30 35.38 96.03 33.94 92.01 C 35.07 91.13 36.21 90.25 37.34 89.38 C 35.86 85.77 37.88 82.49 40.55 80.18 C 40.37 77.38 40.38 74.56 40.76 71.78 C 41.29 71.41 42.36 70.69 42.89 70.32 C 43.21 63.41 37.37 58.91 33.99 53.57 C 31.03 53.39 29.54 50.35 27.60 48.51 C 29.09 72.06 28.97 95.67 29.29 119.26 C 31.26 121.74 29.75 124.23 28.04 126.28 C 26.36 128.05 28.68 129.89 29.23 131.62 C 30.44 133.32 29.40 136.66 27.01 136.25 C 24.64 136.35 24.95 133.26 25.13 131.70 C 24.83 131.25 24.23 130.35 23.94 129.90 C 26.47 127.75 23.98 124.54 25.85 122.24 L 29.08 123.16 L 29.27 121.65 C 27.49 121.49 25.70 121.37 23.91 121.35 L 25.34 118.97 C 24.73 94.13 24.74 69.24 23.14 44.42 C 20.18 41.56 17.45 38.47 14.68 35.42 C 11.55 42.16 11.51 49.76 12.50 56.98 C 14.79 73.94 18.09 90.82 18.74 107.97 C 18.91 115.34 19.09 122.70 19.36 130.06 C 19.68 138.41 22.43 146.73 20.76 155.09 C 20.12 158.59 18.04 162.16 14.50 163.33 C 8.47 165.27 1.50 161.14 0.00 155.06 L 0.00 147.48 C 1.78 140.35 6.78 134.76 11.06 129.01 C 12.48 126.86 14.42 124.19 13.26 121.50 C 12.94 120.11 11.86 118.77 12.24 117.30 C 12.83 116.90 14.02 116.10 14.62 115.70 C 14.75 96.32 10.96 77.24 8.32 58.13 C 7.11 49.59 7.12 40.39 11.39 32.64 C 9.31 30.47 6.64 28.36 6.19 25.19 C 5.64 19.81 6.54 14.23 9.29 9.52 C 8.77 5.78 13.48 3.29 16.26 5.81 C 19.92 8.92 25.01 10.67 29.78 9.85 C 34.07 9.10 35.98 4.31 40.16 3.35 C 40.21 2.24 40.25 1.12 40.27 0.00 Z" />
<path fill="none" d=" M 40.67 0.00 L 175.00 0.00 L 175.00 191.00 L 0.00 191.00 L 0.00 155.06 C 1.50 161.14 8.47 165.27 14.50 163.33 C 18.04 162.16 20.12 158.59 20.76 155.09 C 22.43 146.73 19.68 138.41 19.36 130.06 C 19.09 122.70 18.91 115.34 18.74 107.97 C 18.09 90.82 14.79 73.94 12.50 56.98 C 11.51 49.76 11.55 42.16 14.68 35.42 C 17.45 38.47 20.18 41.56 23.14 44.42 C 24.74 69.24 24.73 94.13 25.34 118.97 L 23.91 121.35 C 25.70 121.37 27.49 121.49 29.27 121.65 L 29.08 123.16 L 25.85 122.24 C 23.98 124.54 26.47 127.75 23.94 129.90 C 24.23 130.35 24.83 131.25 25.13 131.70 C 24.95 133.26 24.64 136.35 27.01 136.25 C 29.40 136.66 30.44 133.32 29.23 131.62 C 28.68 129.89 26.36 128.05 28.04 126.28 C 29.75 124.23 31.26 121.74 29.29 119.26 C 28.97 95.67 29.09 72.06 27.60 48.51 C 29.54 50.35 31.03 53.39 33.99 53.57 C 37.37 58.91 43.21 63.41 42.89 70.32 C 42.36 70.69 41.29 71.41 40.76 71.78 C 40.38 74.56 40.37 77.38 40.55 80.18 C 37.88 82.49 35.86 85.77 37.34 89.38 C 36.21 90.25 35.07 91.13 33.94 92.01 C 35.38 96.03 32.83 100.30 31.67 104.15 C 32.35 107.84 31.78 111.91 34.14 115.10 C 34.10 119.74 36.05 123.94 39.07 127.38 C 39.35 126.53 39.92 124.83 40.20 123.98 C 40.66 126.28 40.80 128.65 41.41 130.92 C 43.10 133.80 45.90 135.94 47.20 139.09 C 49.13 146.27 47.82 153.71 47.50 160.99 C 47.10 163.80 46.35 167.17 43.45 168.40 C 40.27 170.18 35.19 171.53 35.38 176.05 C 36.96 179.60 41.33 179.46 44.57 179.98 C 45.01 182.30 45.19 185.13 47.57 186.37 C 51.91 188.94 57.31 189.58 62.25 188.86 C 67.14 188.18 68.61 182.75 71.87 179.81 C 73.32 177.93 72.76 175.40 73.13 173.21 C 72.34 168.21 72.56 163.12 72.93 158.10 C 72.57 156.07 72.12 154.06 71.62 152.06 C 73.79 155.14 77.96 154.79 80.58 157.23 C 80.80 157.08 81.25 156.77 81.48 156.61 C 85.37 160.31 91.07 162.52 93.18 167.79 C 93.72 169.32 94.48 171.73 92.71 172.75 C 88.75 174.66 83.76 173.33 80.06 175.97 C 77.47 178.65 76.29 182.53 76.62 186.22 C 77.42 186.28 79.02 186.39 79.82 186.45 C 80.55 186.77 81.30 187.06 82.05 187.33 C 97.41 190.80 113.57 192.58 129.08 189.02 C 135.24 187.65 140.62 183.89 144.51 178.99 C 149.28 179.59 154.11 181.34 158.92 180.09 C 164.08 178.90 168.14 175.30 172.22 172.14 C 172.18 168.34 175.06 165.31 174.99 161.49 L 173.17 162.66 C 174.64 154.96 171.58 146.35 164.47 142.51 C 163.76 142.65 163.05 142.80 162.34 142.95 C 160.57 142.42 158.75 140.86 156.84 141.72 C 153.70 142.47 152.24 145.53 150.71 148.04 C 152.96 148.69 155.44 149.09 157.22 150.76 C 162.89 155.88 162.18 166.64 155.45 170.55 C 153.41 171.86 150.87 171.40 148.58 171.58 C 150.34 166.22 151.18 160.52 150.52 154.88 C 150.02 148.88 147.25 143.44 144.99 137.96 C 140.53 130.30 132.93 125.29 125.94 120.16 C 117.58 113.94 109.76 107.02 102.24 99.81 C 101.29 98.89 100.54 97.79 99.95 96.62 C 97.24 94.01 94.75 91.18 91.91 88.71 C 92.41 88.66 93.41 88.56 93.91 88.51 C 90.50 85.81 87.23 82.94 84.10 79.92 C 86.58 79.40 89.12 79.06 91.51 78.21 C 93.35 77.06 94.83 75.44 96.54 74.12 C 97.72 69.51 98.09 64.74 98.32 60.00 C 97.55 54.00 94.73 48.52 92.64 42.90 C 90.89 37.15 84.69 35.05 81.07 30.80 C 79.79 27.63 79.88 24.00 78.37 20.88 C 73.40 9.48 61.19 2.34 49.02 1.71 C 46.20 1.43 43.03 1.92 40.67 0.00 Z" />
<path fill="#ee6e73" d=" M 5.01 145.93 C 7.40 140.32 11.40 135.63 15.14 130.88 C 15.53 138.63 17.77 146.35 16.59 154.13 C 16.19 156.23 15.20 158.50 13.08 159.35 C 9.98 160.13 6.63 158.48 4.92 155.87 C 3.19 152.80 3.67 149.05 5.01 145.93 Z" />
<path fill="#ee6e73" d=" M 26.50 131.34 C 28.53 130.32 29.28 134.79 27.09 134.78 C 25.62 134.41 25.45 132.24 26.50 131.34 Z" />
</svg>
